<?xml version="1.0" encoding="iso-8859-1"?>
<!-- Generator: Adobe Illustrator 19.0.0, SVG Export Plug-In . SVG Version: 6.00 Build 0)  -->
<svg version="1.1" id="Capa_1" xmlns="http://www.w3.org/2000/svg" xmlns:xlink="http://www.w3.org/1999/xlink" x="0px" y="0px"
	 viewBox="0 0 512 512" style="enable-background:new 0 0 512 512;" xml:space="preserve">
<g>
	<g>
		<path d="M326.411,256c12.855-11.191,21.004-27.656,21.004-45.998c0-33.634-27.363-60.997-60.997-60.997h-9.483v-23.578h-30v23.578
			h-67.35v30h25.063v153.99h-25.063v30h67.35v23.578h30v-23.578h9.483c33.634,0,60.997-27.363,60.997-60.998
			C347.415,283.655,339.266,267.191,326.411,256z M286.418,332.995h-51.77V271h51.77c17.092,0,30.997,13.905,30.997,30.998
			C317.415,319.09,303.51,332.995,286.418,332.995z M286.418,241h-51.77v-61.995h51.77c17.092,0,30.997,13.905,30.997,30.998
			C317.415,227.095,303.51,241,286.418,241z"/>
	</g>
</g>
<g>
	<g>
		<path d="M437.02,74.98C388.667,26.629,324.38,0,256,0S123.333,26.629,74.98,74.98C26.629,123.333,0,187.62,0,256
			s26.629,132.667,74.98,181.02C123.333,485.371,187.62,512,256,512s132.667-26.629,181.02-74.98
			C485.371,388.667,512,324.38,512,256S485.371,123.333,437.02,74.98z M256,482C131.383,482,30,380.617,30,256S131.383,30,256,30
			s226,101.383,226,226S380.617,482,256,482z"/>
	</g>
</g>
<g>
	<g>
		<path d="M256,58.06C146.855,58.06,58.06,146.855,58.06,256S146.855,453.94,256,453.94S453.94,365.145,453.94,256
			S365.145,58.06,256,58.06z M256,423.94c-92.602,0-167.94-75.338-167.94-167.94S163.398,88.06,256,88.06S423.94,163.398,423.94,256
			S348.603,423.94,256,423.94z"/>
	</g>
</g>
<g>
</g>
<g>
</g>
<g>
</g>
<g>
</g>
<g>
</g>
<g>
</g>
<g>
</g>
<g>
</g>
<g>
</g>
<g>
</g>
<g>
</g>
<g>
</g>
<g>
</g>
<g>
</g>
<g>
</g>
</svg>
