<?xml version="1.0"?>
<svg xmlns="http://www.w3.org/2000/svg" xmlns:xlink="http://www.w3.org/1999/xlink" xmlns:svgjs="http://svgjs.com/svgjs" version="1.1" width="512" height="512" x="0" y="0" viewBox="0 0 512 512" style="enable-background:new 0 0 512 512" xml:space="preserve" class=""><g>
<path xmlns="http://www.w3.org/2000/svg" style="" d="M256,0v512c141.385,0,256-114.615,256-256S397.385,0,256,0z" fill="#b85cef" data-original="#0789de" class=""/>
<path xmlns="http://www.w3.org/2000/svg" style="" d="M470.793,256C470.793,114.615,374.626,0,256,0C114.615,0,0,114.615,0,256s114.615,256,256,256  C374.626,512,470.793,397.385,470.793,256z" fill="#8c66c8" data-original="#2ea2ef" class=""/>
<path xmlns="http://www.w3.org/2000/svg" style="" d="M271.454,92.716l86.019,65.417l20.604,82.414c0,58.886-47.737,106.623-106.623,106.624v41.207  c81.644-0.001,147.83-66.186,147.83-147.831S353.098,92.717,271.454,92.716z" fill="#e3c8f8" data-original="#c6e8ff" class=""/>
<path xmlns="http://www.w3.org/2000/svg" style="" d="M388.378,240.547c0-81.645-52.349-147.83-116.925-147.831c-0.001,0-15.454,0-15.454,0v30.905h15.453  c38.974,0,70.567,31.594,70.567,70.567c0,38.973-31.594,70.567-70.567,70.567h-86.02v-30.905l-92.716,92.716l92.716,92.716v-30.905  h86.021C336.03,388.377,388.378,322.192,388.378,240.547z" fill="#ffffff" data-original="#ffffff" class=""/>
<g xmlns="http://www.w3.org/2000/svg">
</g>
<g xmlns="http://www.w3.org/2000/svg">
</g>
<g xmlns="http://www.w3.org/2000/svg">
</g>
<g xmlns="http://www.w3.org/2000/svg">
</g>
<g xmlns="http://www.w3.org/2000/svg">
</g>
<g xmlns="http://www.w3.org/2000/svg">
</g>
<g xmlns="http://www.w3.org/2000/svg">
</g>
<g xmlns="http://www.w3.org/2000/svg">
</g>
<g xmlns="http://www.w3.org/2000/svg">
</g>
<g xmlns="http://www.w3.org/2000/svg">
</g>
<g xmlns="http://www.w3.org/2000/svg">
</g>
<g xmlns="http://www.w3.org/2000/svg">
</g>
<g xmlns="http://www.w3.org/2000/svg">
</g>
<g xmlns="http://www.w3.org/2000/svg">
</g>
<g xmlns="http://www.w3.org/2000/svg">
</g>
</g></svg>
